<svg width="17" height="15" viewBox="0 0 17 15" fill="none" xmlns="http://www.w3.org/2000/svg">
<path d="M3.71027 8.48252L9.05891 13.3297C9.27722 13.5275 9.38201 13.7583 9.37328 14.0221C9.36455 14.2859 9.25066 14.5167 9.03162 14.7146C8.81331 14.8959 8.55861 14.9909 8.26753 14.9995C7.97645 15.008 7.72175 14.9131 7.50344 14.7146L0.299154 8.18575C0.189998 8.08683 0.112498 7.97967 0.0666521 7.86426C0.0208066 7.74885 -0.00138824 7.6252 6.71732e-05 7.4933C0.00152258 7.36141 0.024445 7.23776 0.0688351 7.12235C0.113225 7.00694 0.190362 6.89978 0.300246 6.80085L7.50453 0.272034C7.70465 0.0906777 7.95498 0 8.25552 0C8.55607 0 8.81513 0.0906777 9.03271 0.272034C9.25102 0.469877 9.36018 0.704981 9.36018 0.977344C9.36018 1.24971 9.25102 1.48448 9.03271 1.68167L3.71027 6.50409H15.9084C16.2177 6.50409 16.4771 6.59905 16.6867 6.78898C16.8963 6.97891 17.0007 7.21369 17 7.4933C16.9993 7.77292 16.8945 8.00803 16.6856 8.19862C16.4768 8.3892 16.2177 8.48384 15.9084 8.48252H3.71027Z" fill="#1B1B1B"/>
</svg>
