<svg width="280" height="295" viewBox="0 0 280 295" fill="none" xmlns="http://www.w3.org/2000/svg">
<g filter="url(#filter0_d_564_504)">
<path d="M5 35C5 18.4315 18.4315 5 35 5H245C261.569 5 275 18.4315 275 35V260C275 276.569 261.569 290 245 290H200H142H79H35C18.4315 290 5 276.569 5 260V35Z" fill="white"/>
<path d="M35 4.5C18.1553 4.5 4.5 18.1553 4.5 35V260C4.5 276.845 18.1553 290.5 35 290.5H79H142H200H245C261.845 290.5 275.5 276.845 275.5 260V35C275.5 18.1553 261.845 4.5 245 4.5H35Z" stroke="#EEEEEE"/>
</g>
<defs>
<filter id="filter0_d_564_504" x="0" y="0" width="280" height="295" filterUnits="userSpaceOnUse" color-interpolation-filters="sRGB">
<feFlood flood-opacity="0" result="BackgroundImageFix"/>
<feColorMatrix in="SourceAlpha" type="matrix" values="0 0 0 0 0 0 0 0 0 0 0 0 0 0 0 0 0 0 127 0" result="hardAlpha"/>
<feOffset/>
<feGaussianBlur stdDeviation="2"/>
<feComposite in2="hardAlpha" operator="out"/>
<feColorMatrix type="matrix" values="0 0 0 0 0 0 0 0 0 0 0 0 0 0 0 0 0 0 0.08 0"/>
<feBlend mode="normal" in2="BackgroundImageFix" result="effect1_dropShadow_564_504"/>
<feBlend mode="normal" in="SourceGraphic" in2="effect1_dropShadow_564_504" result="shape"/>
</filter>
</defs>
</svg>
