<svg width="10" height="8" viewBox="0 0 10 8" fill="none" xmlns="http://www.w3.org/2000/svg">
<mask id="path-1-inside-1_564_691" fill="white">
<path d="M8.33333 1.65727V0.975616C8.33328 0.826063 8.2941 0.678519 8.21881 0.54438C8.14352 0.41024 8.03413 0.293094 7.8991 0.201987C7.76407 0.11088 7.607 0.04825 7.44003 0.0189336C7.27306 -0.0103829 7.10064 -0.00560144 6.93611 0.0329086L0.825 1.46405C0.588363 1.51943 0.379188 1.64193 0.229994 1.8125C0.0808003 1.98307 -5.42648e-05 2.19215 2.73241e-08 2.40724V2.63316"/>
</mask>
<path d="M8.33333 1.65727V0.975616C8.33328 0.826063 8.2941 0.678519 8.21881 0.54438C8.14352 0.41024 8.03413 0.293094 7.8991 0.201987C7.76407 0.11088 7.607 0.04825 7.44003 0.0189336C7.27306 -0.0103829 7.10064 -0.00560144 6.93611 0.0329086L0.825 1.46405C0.588363 1.51943 0.379188 1.64193 0.229994 1.8125C0.0808003 1.98307 -5.42648e-05 2.19215 2.73241e-08 2.40724V2.63316" fill="#1B1B1B"/>
<path d="M8.33333 0.975616H9.03333V0.975394L8.33333 0.975616ZM6.93611 0.0329086L6.77658 -0.648671L6.7765 -0.648651L6.93611 0.0329086ZM0.825 1.46405L0.984527 2.14563L0.984612 2.14561L0.825 1.46405ZM2.73241e-08 2.40724H0.7L0.7 2.40707L2.73241e-08 2.40724ZM9.03333 1.65727V0.975616H7.63333V1.65727H9.03333ZM9.03333 0.975394C9.03325 0.702395 8.96147 0.437357 8.82923 0.201758L7.60839 0.887002C7.62674 0.919681 7.63332 0.94973 7.63333 0.975838L9.03333 0.975394ZM8.82923 0.201758C8.69736 -0.0331852 8.51067 -0.229813 8.29061 -0.378287L7.50759 0.782261C7.5576 0.816001 7.58968 0.853666 7.60839 0.887002L8.82923 0.201758ZM8.29061 -0.378287C8.07076 -0.52662 7.82084 -0.624913 7.56108 -0.67052L7.31898 0.708387C7.39316 0.721413 7.45737 0.74838 7.50759 0.782261L8.29061 -0.378287ZM7.56108 -0.67052C7.30132 -0.716128 7.03346 -0.708794 6.77658 -0.648671L7.09564 0.714489C7.16783 0.697591 7.24479 0.695362 7.31898 0.708387L7.56108 -0.67052ZM6.7765 -0.648651L0.665388 0.782488L0.984612 2.14561L7.09572 0.714469L6.7765 -0.648651ZM0.665473 0.782468C0.297238 0.868655 -0.0442022 1.06275 -0.296891 1.35164L0.75688 2.27336C0.802579 2.22112 0.879487 2.17021 0.984527 2.14563L0.665473 0.782468ZM-0.296891 1.35164C-0.551211 1.6424 -0.700099 2.01311 -0.7 2.40742L0.7 2.40707C0.699991 2.37119 0.712812 2.32374 0.75688 2.27336L-0.296891 1.35164ZM-0.7 2.40724V2.63316H0.7V2.40724H-0.7Z" fill="white" mask="url(#path-1-inside-1_564_691)"/>
<path d="M8.88889 7.65001H1.11111C0.895643 7.65001 0.696694 7.57442 0.556404 7.45121C0.417573 7.32927 0.35 7.17438 0.35 7.02412V2.63263C0.35 2.48237 0.417573 2.32748 0.556404 2.20554C0.696694 2.08232 0.895643 2.00674 1.11111 2.00674H8.88889C9.10436 2.00674 9.30331 2.08232 9.4436 2.20554C9.58243 2.32748 9.65 2.48237 9.65 2.63263V7.02412C9.65 7.17438 9.58243 7.32927 9.4436 7.45121C9.30331 7.57442 9.10436 7.65001 8.88889 7.65001Z" fill="#1B1B1B" stroke="white" stroke-width="0.7"/>
<path d="M7.49946 5.07193C7.42579 5.07193 7.35513 5.04622 7.30304 5.00047C7.25095 4.95472 7.22168 4.89266 7.22168 4.82796C7.22168 4.76325 7.25095 4.7012 7.30304 4.65544C7.35513 4.60969 7.42579 4.58398 7.49946 4.58398C7.57313 4.58398 7.64378 4.60969 7.69588 4.65544C7.74797 4.7012 7.77724 4.76325 7.77724 4.82796C7.77724 4.89266 7.74797 4.95472 7.69588 5.00047C7.64378 5.04622 7.57313 5.07193 7.49946 5.07193Z" fill="white" stroke="white" stroke-width="0.7" stroke-linecap="round" stroke-linejoin="round"/>
</svg>
