<svg width="10" height="8" viewBox="0 0 10 8" fill="none" xmlns="http://www.w3.org/2000/svg">
<path d="M1 5V5.72C1 6.168 1 6.392 1.09689 6.5632C1.18211 6.71372 1.31809 6.8361 1.48533 6.9128C1.67511 7 1.924 7 2.42089 7H9M1 5V1M1 5L2.71244 3.716L2.71422 3.7148C3.024 3.4824 3.17911 3.366 3.34756 3.3188C3.54628 3.26288 3.76051 3.27151 3.95289 3.3432C4.116 3.4044 4.25867 3.5328 4.54489 3.7904L4.54756 3.7928C4.83822 4.0544 4.98356 4.1856 5.14933 4.246C5.34553 4.31796 5.56382 4.32448 5.76489 4.2644C5.93511 4.2132 6.09067 4.0908 6.40178 3.846L9 1.8" stroke="white" stroke-width="0.8" stroke-linecap="round" stroke-linejoin="round"/>
</svg>
